<?xml version="1.0" encoding="UTF-8" standalone="no"?>
<svg
   version="1.1"
   width="1117.8486"
   height="1052.8486"
   viewBox="0 0 1117.8486 1052.8486"
   id="svg11"
   sodipodi:docname="logo_white9.svg"
   inkscape:version="1.1.1 (3bf5ae0d25, 2021-09-20)"
   xmlns:inkscape="http://www.inkscape.org/namespaces/inkscape"
   xmlns:sodipodi="http://sodipodi.sourceforge.net/DTD/sodipodi-0.dtd"
   xmlns="http://www.w3.org/2000/svg"
   xmlns:svg="http://www.w3.org/2000/svg">
  <defs
     id="defs15" />
  <sodipodi:namedview
     id="namedview13"
     pagecolor="#ffffff"
     bordercolor="#666666"
     borderopacity="1.0"
     inkscape:pageshadow="2"
     inkscape:pageopacity="0.0"
     inkscape:pagecheckerboard="0"
     showgrid="false"
     inkscape:zoom="0.46940798"
     inkscape:cx="1083.2794"
     inkscape:cy="501.69577"
     inkscape:window-width="5120"
     inkscape:window-height="1377"
     inkscape:window-x="-8"
     inkscape:window-y="-8"
     inkscape:window-maximized="1"
     inkscape:current-layer="g9" />
  <g
     transform="matrix(9.375,0,0,9.375,93.75,93.75)"
     id="g9">
    <defs
       id="SvgjsDefs9391" />
    <g
       id="SvgjsG9392"
       featureKey="YvLwfh-0"
       transform="matrix(3.8461538,0,0,3.8461538,0,-3.8230749)"
       fill="#ffffff">
      <path
         d="m 24,16.994 h -1 v -6.141 c 1.722,-0.446 3,-1.997 3,-3.859 0,-2.209 -1.791,-4 -4,-4 -1.862,0 -3.412,1.278 -3.859,3 H 15 v -2 c 0,-0.551 -0.449,-1 -1,-1 h -4 c -0.551,0 -1,0.449 -1,1 v 2 H 6 v -4 c 0,-0.551 -0.449,-1 -1,-1 H 1 c -0.551,0 -1,0.449 -1,1 v 10 c 0,0.551 0.449,1 1,1 h 4 c 0.551,0 1,-0.449 1,-1 v -4 h 3 v 2 c 0,0.551 0.449,1 1,1 h 4 c 0.551,0 1,-0.449 1,-1 v -2 h 3.142 C 18.505,9.395 19.6,10.489 21,10.852 v 6.141 h -1 c -0.551,0 -1,0.449 -1,1 v 2 h -4.141 c -0.446,-1.722 -1.997,-3 -3.859,-3 -2.209,0 -4,1.791 -4,4 0,2.209 1.791,4 4,4 1.862,0 3.412,-1.278 3.858,-3 H 19 v 2 c 0,0.551 0.449,1 1,1 h 4 c 0.551,0 1,-0.449 1,-1 v -6 c 0,-0.55 -0.449,-0.999 -1,-0.999 z"
         id="path3" />
    </g>
  </g>
</svg>
