
        <svg xmlns="http://www.w3.org/2000/svg" xmlns:xlink="http://www.w3.org/1999/xlink" version="1.1" width="3187.5" height="1021.8100796404195" viewBox="0 0 3187.5 1021.8100796404195">
			
			<g transform="scale(9.375) translate(10, 10)">
				<defs id="SvgjsDefs31784"><linearGradient id="SvgjsLinearGradient31789"><stop id="SvgjsStop31790" stop-color="#ef4136" offset="0"/><stop id="SvgjsStop31791" stop-color="#fbb040" offset="1"/></linearGradient><linearGradient id="SvgjsLinearGradient31792"><stop id="SvgjsStop31793" stop-color="#ef4136" offset="0"/><stop id="SvgjsStop31794" stop-color="#fbb040" offset="1"/></linearGradient></defs><g id="SvgjsG31785" featureKey="symbolFeature-0" transform="matrix(1.0526313253387471,0,0,1.0526313253387471,-15.789464860743909,-21.292924268319158)" fill="#fff"><g xmlns="http://www.w3.org/2000/svg" transform="matrix(1.25,0,0,-1.25,0,125)"><path style="" d="m 46.804071,50.053942 c 0,0 2.226119,-4.889794 -4.687116,-6.23872 -2.023391,-0.50586 -4.552572,-0.337223 -7.081839,-0.168551 -2.697837,0 -5.395672,0 -7.419044,0.168551 -6.070135,0.674429 -6.070135,3.320331 -6.070135,3.320331 l 0,-0.622512 c 0,-1.854753 -0.674498,-2.697819 -0.843119,-2.697819 -0.505826,-0.337223 -1.180272,-0.674428 -1.854735,-0.674428 l -3.307182,0 c -1.854788,0 -3.540903,1.517494 -3.540903,3.540867 l 0,13.995092 c 0,1.854751 1.517529,3.540884 3.540903,3.540884 l 3.307182,0 c 0.843049,0 1.686132,-0.337223 2.19201,-0.843083 0.337223,0.843083 0.843049,2.023407 1.854718,3.203678 3.878142,3.035094 7.924921,13.192388 7.924921,13.192388 0,0 -0.674445,4.046746 1.348945,4.046746 1.854769,0 6.407375,-1.348909 3.709505,-9.611055 -2.697854,-8.262163 0,-5.773291 0,-5.773291 0.67448,0.168551 1.180323,0.33724 1.686201,0.33724 l 0,0 c 0,0 7.924905,1.686132 10.791361,-0.8431 2.360561,-2.191959 -0.03413,-4.889829 -0.03413,-4.889829 0,0 3.203679,-2.866473 0,-6.407359 0.168551,-0.16855 2.191975,-3.709556 -1.517582,-6.57603 z" fill-opacity="1" fill-rule="evenodd"/><path d="m 53.330246,65.166927 0,-5.484434 17.647605,0 0,-38.018804 -38.0222,0 0,17.647604 -5.484415,0 0,-23.12866 48.987653,0 0,48.984294 -23.128643,0 z" style="" fill-opacity="1" fill-rule="evenodd"/><path style="" d="m 86.758837,60.960032 c -2.14607,2.146053 -3.903885,1.646983 -6.419865,-0.868998 C 80.191381,59.950547 55.773697,35.47897 55.773697,35.47897 l -8.07395,8.073933 -4.996399,-4.996901 13.812423,-13.592821 29.067142,29.849214 c 2.527604,2.511841 3.321959,4.001584 1.175924,6.147637 z"/></g></g><g id="SvgjsG31786" featureKey="nameFeature-0" transform="matrix(1.6647012391401397,0,0,1.6647012391401397,116.66319859200455,3.7945356669530668)" fill="#fff"><path d="M2.04 13.079999999999998 c0 1.92 -0.08 22.56 0 24.4 c0.04 0.44 0.04 0.88 0.04 1.32 c0 0.32 0.2 0.52 0.48 0.64 c0.24 0.08 0.56 0.16 0.8 0.16 c1.16 -0.12 2.4 0 3.6 -0.04 c2.08 0.16 3.96 -0.32 5.76 -1.28 c1.68 -0.96 2.6 -2.68 3.24 -4.48 c0.52 -1.52 0.44 -3.32 0.16 -4.88 c-0.24 -1.4 -0.88 -2.76 -1.72 -3.88 c-0.12 -0.16 -1.84 -1.24 -1.76 -1.32 c1.04 -1.48 2.52 -2.72 2.72 -4.56 c0.16 -1.6 -0.2 -3.24 -0.76 -4.72 c-0.36 -0.96 -0.84 -1.88 -1.6 -2.6 c-1.28 -1.2 -3.2 -1.72 -4.88 -1.88 c-1.72 -0.16 -3.32 -0.04 -5.04 -0.12 c-0.6 0 -0.88 0.24 -0.88 0.88 c0 0.84 -0.16 1.52 -0.16 2.36 z M6.96 20.36 c-0.04 -0.44 0 -3.96 -0.08 -5.28 c-0.04 -0.48 0.24 -0.72 0.76 -0.6 c0.4 0.08 0.72 0.12 1.04 0.36 c1 0.76 1.76 1.68 1.8 2.96 c0 0.64 0 1.28 -0.24 1.88 c-0.28 0.72 -0.68 1.28 -1.4 1.64 c-0.48 0.24 -0.92 0.52 -1.4 0.72 c-0.24 0.08 -0.48 -0.04 -0.52 -0.28 c0 -0.48 0.04 -1.4 0.04 -1.4 z M10.96 30.96 c0 0.2 -0.04 0.56 -0.04 0.92 c-0.04 1.2 -1.6 2.72 -3.4 2.76 c-0.12 0 -0.32 -0.12 -0.36 -0.24 c-0.08 -0.24 -0.16 -0.52 -0.16 -0.8 c-0.04 -1.24 0 -2.44 0 -3.76 c0.12 -0.84 0.04 -1.72 0.04 -2.6 c0.04 -0.68 0.2 -0.8 0.84 -0.92 c0.96 -0.12 1.84 0.28 2.28 1.04 c0.52 0.92 0.72 1.92 0.8 2.96 l0 0.64 z M20.4 31.8 l-0.04 0 c0 1 -0.04 2.04 0 3.08 c0.04 1.28 0.12 2.56 0.2 3.84 c0 0.44 0.12 0.56 0.52 0.64 c0.84 0.2 1.64 0.24 2.48 0.24 c2.16 -0.08 4.32 0.08 6.48 0 c0.88 -0.04 1.28 0.04 2.16 -0.12 c0.8 -0.16 1.08 -0.6 1.08 -1.8 c-0.08 -0.76 -0.04 -1.08 -0.04 -2 c0 -1.32 -0.92 -1.76 -1.72 -1.72 c-0.56 0.04 -3.24 -0.04 -4.32 -0.04 c-1.8 0.04 -1.52 0.28 -1.52 -1.6 c0 -1.52 0.04 -3.48 0.04 -5.04 c0 -0.84 0.08 -1.12 0.88 -1.12 l5 0 c0.8 0.12 1.36 -0.44 1.36 -1.28 s0.08 -0.88 0.08 -1.72 l-0.12 -1.2 c-0.08 -0.68 -0.32 -0.92 -1 -0.92 c-0.44 0 -0.88 0.04 -1.32 0.08 c-1.72 0.12 -2.52 -0.12 -4.2 0 c-0.56 0 -0.64 -0.08 -0.68 -0.6 c-0.16 -1.56 0 -3.28 0.16 -4.84 c0.04 -0.64 0.2 -0.76 0.8 -0.8 l5.64 -0.04 c0.76 -0.08 1 -0.04 0.96 -0.8 c-0.08 -1.16 0.04 -2.36 -0.08 -3.52 c-0.08 -0.64 -0.28 -0.76 -1 -0.76 c-1.2 0.04 -1.48 0.04 -2.68 0.12 c-1.2 0.04 -6 0.04 -7.16 0.04 c-1.68 0 -1.8 -0.12 -1.84 1.92 c-0.08 1.6 -0.04 3.24 -0.04 4.88 c0 2.8 -0.16 12.84 -0.08 15.08 z M40.96 39.68 c0.12 0.04 0.48 0.04 0.84 0.04 c0.8 0 1.04 -2.88 1.12 -3.48 c0.04 -0.48 0.16 -0.52 0.56 -0.6 c2 -0.24 3 -0.08 5 -0.04 c0.44 0 0.68 0.2 0.8 0.56 l0.28 0.92 c0.24 0.68 0.44 1.52 0.68 2.2 c0.16 0.48 0.2 0.44 0.68 0.44 c0.64 0 2.96 0 3.64 -0.04 c0.92 0 0.28 -1.88 0.16 -2.2 c-0.36 -1.12 -0.44 -2.28 -0.8 -3.4 c-0.16 -0.48 -4.72 -22.12 -4.92 -23.32 c-0.28 -0.72 -0.04 -0.76 -0.68 -0.76 c-1.36 0 -2.8 0.08 -4.2 0 c-0.56 0 -0.52 0.16 -0.6 0.76 c-0.08 0.56 -1.52 6.92 -2.08 9.56 c-0.72 3.32 -1.36 6.52 -2.16 9.8 c-0.28 1.16 -2.2 9.52 -1.96 9.56 c0.12 0.08 0.32 0.04 0.48 0.04 c1 0 1.92 0 3.16 -0.04 z M46.2 30.6 l-0.84 0 c-1.12 0 -1.16 0 -0.88 -1.16 c0.2 -0.88 1.28 -5.64 1.52 -6.8 c0.04 -0.08 0.12 -0.16 0.16 -0.16 c0.08 0 0.16 0.08 0.2 0.12 c0.16 0.48 0.32 1.68 0.48 2.16 c0.36 1.52 0.6 2.8 0.96 4.44 c0.36 1.44 0.2 1.44 -0.52 1.44 c-0.36 0 -0.72 -0.04 -1.08 -0.04 z M74.84 14.719999999999999 c0.04 -1.32 0 -2.4 0 -3.68 c0 -1.48 -2.68 -1.32 -3.64 -1.28 c-4.28 0.28 -8.36 3 -10.32 6.72 c-0.56 1.08 -0.96 2.2 -1.24 3.36 c-0.68 2.72 -0.72 5.6 -0.4 8.36 c0.28 2.6 0.96 5.2 2.56 7.28 c2.76 3.64 7.84 4.92 12.2 4.24 c0.2 -0.04 0.4 -0.08 0.56 -0.2 c0.12 -0.08 0.24 -0.24 0.24 -0.4 l0.12 -2.28 c0.04 -0.72 0 -0.68 0 -1.4 c0 -0.96 -2 -0.24 -3.24 -0.24 c-1.2 0 -2.48 -0.04 -3.56 -0.6 c-1.92 -1.08 -3 -3.24 -3.6 -5.28 c-0.68 -2.2 -0.84 -4.56 -0.44 -6.8 c0.48 -2.92 1.88 -6.28 4.96 -7.28 c1.76 -0.6 3.64 -0.4 5.4 -0.2 c0.24 0.04 0.4 -0.12 0.4 -0.32 z M100 17.36 c0.84 2.48 1.04 5.16 1.04 7.8 c0 2.2 -0.4 4.32 -0.96 6.44 c-0.72 2.52 -1.92 4.8 -4.08 6.28 c-1.6 1.16 -3.28 1.92 -5.24 2.12 c-0.28 0 -0.52 0.04 -0.8 0.04 c-0.24 0 -0.48 -0.04 -0.76 -0.04 c-1.96 -0.2 -3.64 -0.96 -5.28 -2.12 c-2.12 -1.48 -3.36 -3.76 -4.04 -6.28 c-0.6 -2.12 -0.96 -4.24 -0.96 -6.44 c0 -2.64 0.2 -5.32 1.04 -7.8 c1.48 -4.28 5.56 -7.32 10 -7.4 c4.44 0.08 8.52 3.12 10.04 7.4 z M96.12 28.08 c0.4 -2.44 0.24 -4.92 -0.24 -7.36 c-0.48 -2.2 -1.44 -4.36 -3.28 -5.68 c-0.32 -0.24 -0.68 -0.44 -1.04 -0.56 c-0.52 -0.24 -1.08 -0.32 -1.6 -0.32 s-1.04 0.08 -1.56 0.32 c-0.4 0.12 -0.72 0.32 -1.04 0.56 c-1.88 1.32 -2.84 3.48 -3.28 5.68 c-0.48 2.44 -0.64 4.92 -0.24 7.36 c0.4 2.2 1.2 5.16 3.28 6.28 c0.88 0.48 1.84 0.8 2.84 0.84 c1 -0.04 2 -0.36 2.88 -0.84 c2.08 -1.12 2.88 -4.08 3.28 -6.28 z M122.08000000000001 10.920000000000002 c0.12 0.56 0.04 27.2 0.04 27.88 c0 1.2 -0.44 1.16 -1.24 1.16 c-1.2 0 -2.88 0.2 -3.24 -0.2 c-0.32 -0.28 -6.24 -14.56 -7.08 -16.36 c-0.08 -0.16 -0.28 -0.56 -0.44 -0.48 c-0.2 0.08 -0.12 0.36 -0.12 0.52 c-0.04 1.4 0.2 13.48 0.2 15.4 c0 0.96 -0.04 1.12 -0.84 1.12 l-2 0 c-0.52 0 -1.16 -0.04 -1.68 0.04 c-0.4 0 -0.6 -0.12 -0.64 -0.52 l0 -3.16 c0.08 -3.36 0 -23.28 0 -24.76 c0 -1.28 0.36 -1.52 1.64 -1.52 c0.88 -0.04 1.76 -0.04 2.64 -0.04 c0.28 0 0.44 0.04 0.6 0.4 c1.08 2.52 5.68 14.08 6.4 15.48 c0.12 0.28 0.56 1.4 0.8 1.52 l0.04 0 c0.16 -0.16 0.12 -0.96 0.12 -1.2 c0 -0.6 -0.32 -14.64 -0.32 -14.92 c0 -0.4 -0.12 -0.76 0.08 -1.04 c0.12 -0.16 0.64 -0.2 0.84 -0.24 c1.12 -0.08 2.44 0.04 3.56 0 c0.56 0 0.52 0.4 0.64 0.92 z"/></g>
			</g>
		</svg>
	