
        <svg xmlns="http://www.w3.org/2000/svg" xmlns:xlink="http://www.w3.org/1999/xlink" version="1.1" width="3187.5" height="1221.1188900161865" viewBox="0 0 3187.5 1221.1188900161865">
			
			<g transform="scale(9.375) translate(10, 10)">
				<defs id="SvgjsDefs34159"><linearGradient id="SvgjsLinearGradient34164"><stop id="SvgjsStop34165" stop-color="#ef4136" offset="0"/><stop id="SvgjsStop34166" stop-color="#fbb040" offset="1"/></linearGradient><linearGradient id="SvgjsLinearGradient34167"><stop id="SvgjsStop34168" stop-color="#ef4136" offset="0"/><stop id="SvgjsStop34169" stop-color="#fbb040" offset="1"/></linearGradient></defs><g id="SvgjsG34160" featureKey="symbolFeature-0" transform="matrix(1.1633402613166552,0,0,1.1633402613166552,-9.575290539952233,-2.2656645032731815)" fill="#fff"><g xmlns="http://www.w3.org/2000/svg"><path d="M38.0576553,63.2997475c0,0-1.527092-12.6557083,13.5670128-19.3311234s15.2853432-18.2275295,15.2853432-18.2275295   s-7.9499435,10.0059719-19.6077766,9.6759701c-11.6578293-0.3299713-20.1234055,6.1205177-21.7092152,13.2514038   c0,0-5.0015717-7.1397514,1.6159687-15.1518822C9.4691534,47.371273,12.1948814,76.4257278,12.1948814,76.4257278   s-0.1150112,16.97789,14.8274689,20.1792297c0.1921329,0.041153,0.3830509,0.0785446,0.5737133,0.1151123   c-3.7675037-2.6844254-11.4449978-11.0653-6.0486813-32.8496742c0,0-1.4964848,9.6950874,5.527298,17.8334923   c0,0-4.8116741-17.5561905,7.1271019-33.7273064c0,0-11.4844189,21.7474709,4.620182,40.0761986   c0,0-2.9396782-11.4148407,7.389328-22.9045486c0,0-5.8076057,14.1772232,0.0999947,27.4175568   c4.0940742-3.0977859,6.5510254-7.1881332,6.755619-10.4317017c1.0720291-17.0015564,0.6863594-24.4325752,10.4802475-30.5790977   C63.5471535,51.5549889,50.1641541,44.6427803,38.0576553,63.2997475z"/><path d="M73.0924225,5.6716652c1.4417877,4.4924078-0.610321,8.7238054-0.610321,8.7238054   c-3.9133148,8.5032091-2.0608063,15.9537783-2.0608063,15.9537783C79.899025,17.6003799,73.0924225,5.6716652,73.0924225,5.6716652   z"/><path d="M56.9545326,45.2041779c31.499012-1.2599449,23.8430519-25.9718723,23.8430519-25.9718723   C78.3113632,37.6293335,56.9545326,45.2041779,56.9545326,45.2041779z"/><path d="M80.1441956,14.9264059C82.3161087,5.1041336,94.1902313,1.9764744,94.1902313,1.9764744   C77.1240082,1.23689,80.1441956,14.9264059,80.1441956,14.9264059z"/><ellipse transform="matrix(0.7953981 -0.6060873 0.6060873 0.7953981 -6.3102942 34.9353638)" cx="48.5889511" cy="26.8141003" rx="0.9160027" ry="0.9160124"/><ellipse transform="matrix(0.7954065 -0.6060763 0.6060763 0.7954065 -26.5384312 15.3823042)" cx="9.5146227" cy="46.9991341" rx="0.9160027" ry="0.9160027"/><ellipse transform="matrix(0.7953981 -0.6060873 0.6060873 0.7953981 3.0199037 32.8873787)" cx="50.2207031" cy="11.9707956" rx="0.9159979" ry="0.9160124"/><ellipse transform="matrix(0.7954013 -0.6060831 0.6060831 0.7954013 -0.0930922 60.1989326)" cx="89.1171722" cy="30.2373505" rx="0.8934247" ry="0.8934056"/><ellipse transform="matrix(0.7954158 -0.6060641 0.6060641 0.7954158 -21.0521774 57.6026802)" cx="74.7955475" cy="59.984024" rx="1.6575286" ry="1.6575093"/><ellipse transform="matrix(0.7954158 -0.6060641 0.6060641 0.7954158 -14.7466516 26.4376011)" cx="31.7862968" cy="35.0616798" rx="1.6575286" ry="1.6575093"/></g></g><g id="SvgjsG34161" featureKey="nameFeature-0" transform="matrix(1.6647012391401397,0,0,1.6647012391401397,116.66319859200455,13.794535666953067)" fill="#fff"><path d="M2.04 13.079999999999998 c0 1.92 -0.08 22.56 0 24.4 c0.04 0.44 0.04 0.88 0.04 1.32 c0 0.32 0.2 0.52 0.48 0.64 c0.24 0.08 0.56 0.16 0.8 0.16 c1.16 -0.12 2.4 0 3.6 -0.04 c2.08 0.16 3.96 -0.32 5.76 -1.28 c1.68 -0.96 2.6 -2.68 3.24 -4.48 c0.52 -1.52 0.44 -3.32 0.16 -4.88 c-0.24 -1.4 -0.88 -2.76 -1.72 -3.88 c-0.12 -0.16 -1.84 -1.24 -1.76 -1.32 c1.04 -1.48 2.52 -2.72 2.72 -4.56 c0.16 -1.6 -0.2 -3.24 -0.76 -4.72 c-0.36 -0.96 -0.84 -1.88 -1.6 -2.6 c-1.28 -1.2 -3.2 -1.72 -4.88 -1.88 c-1.72 -0.16 -3.32 -0.04 -5.04 -0.12 c-0.6 0 -0.88 0.24 -0.88 0.88 c0 0.84 -0.16 1.52 -0.16 2.36 z M6.96 20.36 c-0.04 -0.44 0 -3.96 -0.08 -5.28 c-0.04 -0.48 0.24 -0.72 0.76 -0.6 c0.4 0.08 0.72 0.12 1.04 0.36 c1 0.76 1.76 1.68 1.8 2.96 c0 0.64 0 1.28 -0.24 1.88 c-0.28 0.72 -0.68 1.28 -1.4 1.64 c-0.48 0.24 -0.92 0.52 -1.4 0.72 c-0.24 0.08 -0.48 -0.04 -0.52 -0.28 c0 -0.48 0.04 -1.4 0.04 -1.4 z M10.96 30.96 c0 0.2 -0.04 0.56 -0.04 0.92 c-0.04 1.2 -1.6 2.72 -3.4 2.76 c-0.12 0 -0.32 -0.12 -0.36 -0.24 c-0.08 -0.24 -0.16 -0.52 -0.16 -0.8 c-0.04 -1.24 0 -2.44 0 -3.76 c0.12 -0.84 0.04 -1.72 0.04 -2.6 c0.04 -0.68 0.2 -0.8 0.84 -0.92 c0.96 -0.12 1.84 0.28 2.28 1.04 c0.52 0.92 0.72 1.92 0.8 2.96 l0 0.64 z M20.4 31.8 l-0.04 0 c0 1 -0.04 2.04 0 3.08 c0.04 1.28 0.12 2.56 0.2 3.84 c0 0.44 0.12 0.56 0.52 0.64 c0.84 0.2 1.64 0.24 2.48 0.24 c2.16 -0.08 4.32 0.08 6.48 0 c0.88 -0.04 1.28 0.04 2.16 -0.12 c0.8 -0.16 1.08 -0.6 1.08 -1.8 c-0.08 -0.76 -0.04 -1.08 -0.04 -2 c0 -1.32 -0.92 -1.76 -1.72 -1.72 c-0.56 0.04 -3.24 -0.04 -4.32 -0.04 c-1.8 0.04 -1.52 0.28 -1.52 -1.6 c0 -1.52 0.04 -3.48 0.04 -5.04 c0 -0.84 0.08 -1.12 0.88 -1.12 l5 0 c0.8 0.12 1.36 -0.44 1.36 -1.28 s0.08 -0.88 0.08 -1.72 l-0.12 -1.2 c-0.08 -0.68 -0.32 -0.92 -1 -0.92 c-0.44 0 -0.88 0.04 -1.32 0.08 c-1.72 0.12 -2.52 -0.12 -4.2 0 c-0.56 0 -0.64 -0.08 -0.68 -0.6 c-0.16 -1.56 0 -3.28 0.16 -4.84 c0.04 -0.64 0.2 -0.76 0.8 -0.8 l5.64 -0.04 c0.76 -0.08 1 -0.04 0.96 -0.8 c-0.08 -1.16 0.04 -2.36 -0.08 -3.52 c-0.08 -0.64 -0.28 -0.76 -1 -0.76 c-1.2 0.04 -1.48 0.04 -2.68 0.12 c-1.2 0.04 -6 0.04 -7.16 0.04 c-1.68 0 -1.8 -0.12 -1.84 1.92 c-0.08 1.6 -0.04 3.24 -0.04 4.88 c0 2.8 -0.16 12.84 -0.08 15.08 z M40.96 39.68 c0.12 0.04 0.48 0.04 0.84 0.04 c0.8 0 1.04 -2.88 1.12 -3.48 c0.04 -0.48 0.16 -0.52 0.56 -0.6 c2 -0.24 3 -0.08 5 -0.04 c0.44 0 0.68 0.2 0.8 0.56 l0.28 0.92 c0.24 0.68 0.44 1.52 0.68 2.2 c0.16 0.48 0.2 0.44 0.68 0.44 c0.64 0 2.96 0 3.64 -0.04 c0.92 0 0.28 -1.88 0.16 -2.2 c-0.36 -1.12 -0.44 -2.28 -0.8 -3.4 c-0.16 -0.48 -4.72 -22.12 -4.92 -23.32 c-0.28 -0.72 -0.04 -0.76 -0.68 -0.76 c-1.36 0 -2.8 0.08 -4.2 0 c-0.56 0 -0.52 0.16 -0.6 0.76 c-0.08 0.56 -1.52 6.92 -2.08 9.56 c-0.72 3.32 -1.36 6.52 -2.16 9.8 c-0.28 1.16 -2.2 9.52 -1.96 9.56 c0.12 0.08 0.32 0.04 0.48 0.04 c1 0 1.92 0 3.16 -0.04 z M46.2 30.6 l-0.84 0 c-1.12 0 -1.16 0 -0.88 -1.16 c0.2 -0.88 1.28 -5.64 1.52 -6.8 c0.04 -0.08 0.12 -0.16 0.16 -0.16 c0.08 0 0.16 0.08 0.2 0.12 c0.16 0.48 0.32 1.68 0.48 2.16 c0.36 1.52 0.6 2.8 0.96 4.44 c0.36 1.44 0.2 1.44 -0.52 1.44 c-0.36 0 -0.72 -0.04 -1.08 -0.04 z M74.84 14.719999999999999 c0.04 -1.32 0 -2.4 0 -3.68 c0 -1.48 -2.68 -1.32 -3.64 -1.28 c-4.28 0.28 -8.36 3 -10.32 6.72 c-0.56 1.08 -0.96 2.2 -1.24 3.36 c-0.68 2.72 -0.72 5.6 -0.4 8.36 c0.28 2.6 0.96 5.2 2.56 7.28 c2.76 3.64 7.84 4.92 12.2 4.24 c0.2 -0.04 0.4 -0.08 0.56 -0.2 c0.12 -0.08 0.24 -0.24 0.24 -0.4 l0.12 -2.28 c0.04 -0.72 0 -0.68 0 -1.4 c0 -0.96 -2 -0.24 -3.24 -0.24 c-1.2 0 -2.48 -0.04 -3.56 -0.6 c-1.92 -1.08 -3 -3.24 -3.6 -5.28 c-0.68 -2.2 -0.84 -4.56 -0.44 -6.8 c0.48 -2.92 1.88 -6.28 4.96 -7.28 c1.76 -0.6 3.64 -0.4 5.4 -0.2 c0.24 0.04 0.4 -0.12 0.4 -0.32 z M100 17.36 c0.84 2.48 1.04 5.16 1.04 7.8 c0 2.2 -0.4 4.32 -0.96 6.44 c-0.72 2.52 -1.92 4.8 -4.08 6.28 c-1.6 1.16 -3.28 1.92 -5.24 2.12 c-0.28 0 -0.52 0.04 -0.8 0.04 c-0.24 0 -0.48 -0.04 -0.76 -0.04 c-1.96 -0.2 -3.64 -0.96 -5.28 -2.12 c-2.12 -1.48 -3.36 -3.76 -4.04 -6.28 c-0.6 -2.12 -0.96 -4.24 -0.96 -6.44 c0 -2.64 0.2 -5.32 1.04 -7.8 c1.48 -4.28 5.56 -7.32 10 -7.4 c4.44 0.08 8.52 3.12 10.04 7.4 z M96.12 28.08 c0.4 -2.44 0.24 -4.92 -0.24 -7.36 c-0.48 -2.2 -1.44 -4.36 -3.28 -5.68 c-0.32 -0.24 -0.68 -0.44 -1.04 -0.56 c-0.52 -0.24 -1.08 -0.32 -1.6 -0.32 s-1.04 0.08 -1.56 0.32 c-0.4 0.12 -0.72 0.32 -1.04 0.56 c-1.88 1.32 -2.84 3.48 -3.28 5.68 c-0.48 2.44 -0.64 4.92 -0.24 7.36 c0.4 2.2 1.2 5.16 3.28 6.28 c0.88 0.48 1.84 0.8 2.84 0.84 c1 -0.04 2 -0.36 2.88 -0.84 c2.08 -1.12 2.88 -4.08 3.28 -6.28 z M122.08000000000001 10.920000000000002 c0.12 0.56 0.04 27.2 0.04 27.88 c0 1.2 -0.44 1.16 -1.24 1.16 c-1.2 0 -2.88 0.2 -3.24 -0.2 c-0.32 -0.28 -6.24 -14.56 -7.08 -16.36 c-0.08 -0.16 -0.28 -0.56 -0.44 -0.48 c-0.2 0.08 -0.12 0.36 -0.12 0.52 c-0.04 1.4 0.2 13.48 0.2 15.4 c0 0.96 -0.04 1.12 -0.84 1.12 l-2 0 c-0.52 0 -1.16 -0.04 -1.68 0.04 c-0.4 0 -0.6 -0.12 -0.64 -0.52 l0 -3.16 c0.08 -3.36 0 -23.28 0 -24.76 c0 -1.28 0.36 -1.52 1.64 -1.52 c0.88 -0.04 1.76 -0.04 2.64 -0.04 c0.28 0 0.44 0.04 0.6 0.4 c1.08 2.52 5.68 14.08 6.4 15.48 c0.12 0.28 0.56 1.4 0.8 1.52 l0.04 0 c0.16 -0.16 0.12 -0.96 0.12 -1.2 c0 -0.6 -0.32 -14.64 -0.32 -14.92 c0 -0.4 -0.12 -0.76 0.08 -1.04 c0.12 -0.16 0.64 -0.2 0.84 -0.24 c1.12 -0.08 2.44 0.04 3.56 0 c0.56 0 0.52 0.4 0.64 0.92 z"/></g>
			</g>
		</svg>
	