
        <svg xmlns="http://www.w3.org/2000/svg" xmlns:xlink="http://www.w3.org/1999/xlink" version="1.1" width="3168.5393258426966" height="1011.2359550561798" viewBox="0 0 3168.5393258426966 1011.2359550561798">
			
			<g transform="scale(8.426966292134832) translate(10, 10)">
				<defs id="SvgjsDefs26472"><linearGradient id="SvgjsLinearGradient26479"><stop id="SvgjsStop26480" stop-color="#ef4136" offset="0"/><stop id="SvgjsStop26481" stop-color="#fbb040" offset="1"/></linearGradient><linearGradient id="SvgjsLinearGradient26482"><stop id="SvgjsStop26483" stop-color="#ef4136" offset="0"/><stop id="SvgjsStop26484" stop-color="#fbb040" offset="1"/></linearGradient><linearGradient id="SvgjsLinearGradient26485"><stop id="SvgjsStop26486" stop-color="#ef4136" offset="0"/><stop id="SvgjsStop26487" stop-color="#fbb040" offset="1"/></linearGradient></defs><g id="SvgjsG26473" featureKey="symbolFeature-0" transform="matrix(1.1115310748630662,0,0,1.1115310748630662,-5.5754396425447945,-5.083409097828252)" fill="#fff"><rect xmlns="http://www.w3.org/2000/svg" x="33.079" y="24.483" width="27.158" height="4.526"/><polygon xmlns="http://www.w3.org/2000/svg" points="19.682,32.614 22.929,29.367 26.175,32.613 28.735,30.053 25.489,26.807 28.735,23.56 26.175,21 22.929,24.246   19.683,21 17.123,23.56 20.369,26.807 17.122,30.054 "/><polygon xmlns="http://www.w3.org/2000/svg" points="27.08,41.027 21.447,46.66 18.777,43.99 16.216,46.55 21.447,51.781 29.64,43.587 "/><polygon xmlns="http://www.w3.org/2000/svg" points="18.777,63.924 16.217,66.484 21.447,71.714 29.64,63.521 27.08,60.961 21.447,66.594 "/><path xmlns="http://www.w3.org/2000/svg" d="M11.806,84.684V12.262h58.842v25.835c1.333-1.014,2.947-1.57,4.649-1.57c0.735,0,1.453,0.107,2.141,0.305V9.999  c0-2.49-2.039-4.526-4.526-4.526H9.542c-2.491,0-4.526,2.036-4.526,4.526v76.947c0,2.487,2.035,4.526,4.526,4.526h28.837  c-0.531-2.35,0.046-4.892,1.726-6.789H11.806z"/><path xmlns="http://www.w3.org/2000/svg" d="M33.079,68.841h4.625c1.413-1.688,3.521-2.765,5.876-2.765h1.156c0.03-0.081,0.061-0.164,0.091-0.245l-1.613-1.517H33.079  V68.841z"/><path xmlns="http://www.w3.org/2000/svg" d="M54.458,47.144c-0.357-0.878-0.525-1.811-0.544-2.745H33.079v4.526h20.304C53.706,48.312,54.058,47.713,54.458,47.144z"/><path xmlns="http://www.w3.org/2000/svg" d="M47.644,55.563c-0.662-0.662-1.734-0.645-2.397,0.017c-0.663,0.662-0.665,1.744-0.003,2.406l4.058,3.816  c0.318,0.318,0.75,0.244,1.2,0.244h3.301c-2.351,2.948-3.895,6.489-4.466,10.029H43.58c-0.937,0-1.695,0.833-1.695,1.77  s0.758,1.771,1.695,1.771h5.507c0.029,2.949,0.776,5.899,2.078,8.259h-1.229c-0.45,0-0.882,0.258-1.2,0.577l-4.058,4.109  c-0.661,0.663-0.66,1.755,0.002,2.416c0.332,0.329,0.764,0.504,1.197,0.504c0.434,0,0.869-0.164,1.199-0.497l3.562-3.568h2.736  c3.333,4.13,8.568,6.811,13.878,7.111V59.097h-16.05L47.644,55.563z"/><path xmlns="http://www.w3.org/2000/svg" d="M93.29,72.076h-5.877c-0.731-3.54-2.616-7.081-4.824-10.029h3.779c0.45,0,0.882,0.079,1.2-0.239l4.059-3.94  c0.66-0.663,0.658-1.671-0.004-2.331c-0.664-0.662-1.735-0.668-2.397-0.005l-3.562,3.565h-16.05v35.419  c5.311-0.346,10.451-3.56,13.784-7.1h2.831l3.562,3.573c0.331,0.334,0.765,0.501,1.199,0.501c0.434,0,0.866-0.166,1.197-0.494  c0.663-0.66,0.664-1.733,0.003-2.396l-4.058-4.148c-0.318-0.319-0.75-0.577-1.2-0.577h-1.298c1.318-2.359,2.075-5.31,2.104-8.259  h5.55c0.936,0,1.694-0.834,1.694-1.771S94.226,72.076,93.29,72.076z"/><path xmlns="http://www.w3.org/2000/svg" d="M57.473,56.736h21.923c0-4.13-2.049-7.236-5.125-9.177l2.213-2.168c0.662-0.662,0.662-1.712,0-2.374  c-0.662-0.661-1.734-0.65-2.396,0.011l-3.2,3.207c-0.79-0.181-1.608-0.283-2.453-0.283c-0.845,0-1.664,0.106-2.454,0.287l-3.2-3.199  c-0.662-0.662-1.734-0.662-2.396,0c-0.662,0.661-0.662,1.735,0,2.397l2.212,2.122C59.522,49.501,57.473,52.606,57.473,56.736z"/></g><g id="SvgjsG26474" featureKey="textGroupContainer" transform="matrix(1,0,0,1,355,0)" fill="#fff"><rect xmlns="http://www.w3.org/2000/svg" y="0" height="1" width="1" opacity="0"/><rect xmlns="http://www.w3.org/2000/svg" y="0" x="-235" width="3" height="100"/></g><g id="SvgjsG26475" featureKey="nameFeature-0" transform="matrix(1.6647012391401397,0,0,1.6647012391401397,134.66319859200456,8.794535666953067)" fill="#fff"><path d="M2.04 13.079999999999998 c0 1.92 -0.08 22.56 0 24.4 c0.04 0.44 0.04 0.88 0.04 1.32 c0 0.32 0.2 0.52 0.48 0.64 c0.24 0.08 0.56 0.16 0.8 0.16 c1.16 -0.12 2.4 0 3.6 -0.04 c2.08 0.16 3.96 -0.32 5.76 -1.28 c1.68 -0.96 2.6 -2.68 3.24 -4.48 c0.52 -1.52 0.44 -3.32 0.16 -4.88 c-0.24 -1.4 -0.88 -2.76 -1.72 -3.88 c-0.12 -0.16 -1.84 -1.24 -1.76 -1.32 c1.04 -1.48 2.52 -2.72 2.72 -4.56 c0.16 -1.6 -0.2 -3.24 -0.76 -4.72 c-0.36 -0.96 -0.84 -1.88 -1.6 -2.6 c-1.28 -1.2 -3.2 -1.72 -4.88 -1.88 c-1.72 -0.16 -3.32 -0.04 -5.04 -0.12 c-0.6 0 -0.88 0.24 -0.88 0.88 c0 0.84 -0.16 1.52 -0.16 2.36 z M6.96 20.36 c-0.04 -0.44 0 -3.96 -0.08 -5.28 c-0.04 -0.48 0.24 -0.72 0.76 -0.6 c0.4 0.08 0.72 0.12 1.04 0.36 c1 0.76 1.76 1.68 1.8 2.96 c0 0.64 0 1.28 -0.24 1.88 c-0.28 0.72 -0.68 1.28 -1.4 1.64 c-0.48 0.24 -0.92 0.52 -1.4 0.72 c-0.24 0.08 -0.48 -0.04 -0.52 -0.28 c0 -0.48 0.04 -1.4 0.04 -1.4 z M10.96 30.96 c0 0.2 -0.04 0.56 -0.04 0.92 c-0.04 1.2 -1.6 2.72 -3.4 2.76 c-0.12 0 -0.32 -0.12 -0.36 -0.24 c-0.08 -0.24 -0.16 -0.52 -0.16 -0.8 c-0.04 -1.24 0 -2.44 0 -3.76 c0.12 -0.84 0.04 -1.72 0.04 -2.6 c0.04 -0.68 0.2 -0.8 0.84 -0.92 c0.96 -0.12 1.84 0.28 2.28 1.04 c0.52 0.92 0.72 1.92 0.8 2.96 l0 0.64 z M20.4 31.8 l-0.04 0 c0 1 -0.04 2.04 0 3.08 c0.04 1.28 0.12 2.56 0.2 3.84 c0 0.44 0.12 0.56 0.52 0.64 c0.84 0.2 1.64 0.24 2.48 0.24 c2.16 -0.08 4.32 0.08 6.48 0 c0.88 -0.04 1.28 0.04 2.16 -0.12 c0.8 -0.16 1.08 -0.6 1.08 -1.8 c-0.08 -0.76 -0.04 -1.08 -0.04 -2 c0 -1.32 -0.92 -1.76 -1.72 -1.72 c-0.56 0.04 -3.24 -0.04 -4.32 -0.04 c-1.8 0.04 -1.52 0.28 -1.52 -1.6 c0 -1.52 0.04 -3.48 0.04 -5.04 c0 -0.84 0.08 -1.12 0.88 -1.12 l5 0 c0.8 0.12 1.36 -0.44 1.36 -1.28 s0.08 -0.88 0.08 -1.72 l-0.12 -1.2 c-0.08 -0.68 -0.32 -0.92 -1 -0.92 c-0.44 0 -0.88 0.04 -1.32 0.08 c-1.72 0.12 -2.52 -0.12 -4.2 0 c-0.56 0 -0.64 -0.08 -0.68 -0.6 c-0.16 -1.56 0 -3.28 0.16 -4.84 c0.04 -0.64 0.2 -0.76 0.8 -0.8 l5.64 -0.04 c0.76 -0.08 1 -0.04 0.96 -0.8 c-0.08 -1.16 0.04 -2.36 -0.08 -3.52 c-0.08 -0.64 -0.28 -0.76 -1 -0.76 c-1.2 0.04 -1.48 0.04 -2.68 0.12 c-1.2 0.04 -6 0.04 -7.16 0.04 c-1.68 0 -1.8 -0.12 -1.84 1.92 c-0.08 1.6 -0.04 3.24 -0.04 4.88 c0 2.8 -0.16 12.84 -0.08 15.08 z M40.96 39.68 c0.12 0.04 0.48 0.04 0.84 0.04 c0.8 0 1.04 -2.88 1.12 -3.48 c0.04 -0.48 0.16 -0.52 0.56 -0.6 c2 -0.24 3 -0.08 5 -0.04 c0.44 0 0.68 0.2 0.8 0.56 l0.28 0.92 c0.24 0.68 0.44 1.52 0.68 2.2 c0.16 0.48 0.2 0.44 0.68 0.44 c0.64 0 2.96 0 3.64 -0.04 c0.92 0 0.28 -1.88 0.16 -2.2 c-0.36 -1.12 -0.44 -2.28 -0.8 -3.4 c-0.16 -0.48 -4.72 -22.12 -4.92 -23.32 c-0.28 -0.72 -0.04 -0.76 -0.68 -0.76 c-1.36 0 -2.8 0.08 -4.2 0 c-0.56 0 -0.52 0.16 -0.6 0.76 c-0.08 0.56 -1.52 6.92 -2.08 9.56 c-0.72 3.32 -1.36 6.52 -2.16 9.8 c-0.28 1.16 -2.2 9.52 -1.96 9.56 c0.12 0.08 0.32 0.04 0.48 0.04 c1 0 1.92 0 3.16 -0.04 z M46.2 30.6 l-0.84 0 c-1.12 0 -1.16 0 -0.88 -1.16 c0.2 -0.88 1.28 -5.64 1.52 -6.8 c0.04 -0.08 0.12 -0.16 0.16 -0.16 c0.08 0 0.16 0.08 0.2 0.12 c0.16 0.48 0.32 1.68 0.48 2.16 c0.36 1.52 0.6 2.8 0.96 4.44 c0.36 1.44 0.2 1.44 -0.52 1.44 c-0.36 0 -0.72 -0.04 -1.08 -0.04 z M74.84 14.719999999999999 c0.04 -1.32 0 -2.4 0 -3.68 c0 -1.48 -2.68 -1.32 -3.64 -1.28 c-4.28 0.28 -8.36 3 -10.32 6.72 c-0.56 1.08 -0.96 2.2 -1.24 3.36 c-0.68 2.72 -0.72 5.6 -0.4 8.36 c0.28 2.6 0.96 5.2 2.56 7.28 c2.76 3.64 7.84 4.92 12.2 4.24 c0.2 -0.04 0.4 -0.08 0.56 -0.2 c0.12 -0.08 0.24 -0.24 0.24 -0.4 l0.12 -2.28 c0.04 -0.72 0 -0.68 0 -1.4 c0 -0.96 -2 -0.24 -3.24 -0.24 c-1.2 0 -2.48 -0.04 -3.56 -0.6 c-1.92 -1.08 -3 -3.24 -3.6 -5.28 c-0.68 -2.2 -0.84 -4.56 -0.44 -6.8 c0.48 -2.92 1.88 -6.28 4.96 -7.28 c1.76 -0.6 3.64 -0.4 5.4 -0.2 c0.24 0.04 0.4 -0.12 0.4 -0.32 z M100 17.36 c0.84 2.48 1.04 5.16 1.04 7.8 c0 2.2 -0.4 4.32 -0.96 6.44 c-0.72 2.52 -1.92 4.8 -4.08 6.28 c-1.6 1.16 -3.28 1.92 -5.24 2.12 c-0.28 0 -0.52 0.04 -0.8 0.04 c-0.24 0 -0.48 -0.04 -0.76 -0.04 c-1.96 -0.2 -3.64 -0.96 -5.28 -2.12 c-2.12 -1.48 -3.36 -3.76 -4.04 -6.28 c-0.6 -2.12 -0.96 -4.24 -0.96 -6.44 c0 -2.64 0.2 -5.32 1.04 -7.8 c1.48 -4.28 5.56 -7.32 10 -7.4 c4.44 0.08 8.52 3.12 10.04 7.4 z M96.12 28.08 c0.4 -2.44 0.24 -4.92 -0.24 -7.36 c-0.48 -2.2 -1.44 -4.36 -3.28 -5.68 c-0.32 -0.24 -0.68 -0.44 -1.04 -0.56 c-0.52 -0.24 -1.08 -0.32 -1.6 -0.32 s-1.04 0.08 -1.56 0.32 c-0.4 0.12 -0.72 0.32 -1.04 0.56 c-1.88 1.32 -2.84 3.48 -3.28 5.68 c-0.48 2.44 -0.64 4.92 -0.24 7.36 c0.4 2.2 1.2 5.16 3.28 6.28 c0.88 0.48 1.84 0.8 2.84 0.84 c1 -0.04 2 -0.36 2.88 -0.84 c2.08 -1.12 2.88 -4.08 3.28 -6.28 z M122.08000000000001 10.920000000000002 c0.12 0.56 0.04 27.2 0.04 27.88 c0 1.2 -0.44 1.16 -1.24 1.16 c-1.2 0 -2.88 0.2 -3.24 -0.2 c-0.32 -0.28 -6.24 -14.56 -7.08 -16.36 c-0.08 -0.16 -0.28 -0.56 -0.44 -0.48 c-0.2 0.08 -0.12 0.36 -0.12 0.52 c-0.04 1.4 0.2 13.48 0.2 15.4 c0 0.96 -0.04 1.12 -0.84 1.12 l-2 0 c-0.52 0 -1.16 -0.04 -1.68 0.04 c-0.4 0 -0.6 -0.12 -0.64 -0.52 l0 -3.16 c0.08 -3.36 0 -23.28 0 -24.76 c0 -1.28 0.36 -1.52 1.64 -1.52 c0.88 -0.04 1.76 -0.04 2.64 -0.04 c0.28 0 0.44 0.04 0.6 0.4 c1.08 2.52 5.68 14.08 6.4 15.48 c0.12 0.28 0.56 1.4 0.8 1.52 l0.04 0 c0.16 -0.16 0.12 -0.96 0.12 -1.2 c0 -0.6 -0.32 -14.64 -0.32 -14.92 c0 -0.4 -0.12 -0.76 0.08 -1.04 c0.12 -0.16 0.64 -0.2 0.84 -0.24 c1.12 -0.08 2.44 0.04 3.56 0 c0.56 0 0.52 0.4 0.64 0.92 z"/></g>
			</g>
		</svg>
	