
        <svg xmlns="http://www.w3.org/2000/svg" xmlns:xlink="http://www.w3.org/1999/xlink" version="1.1" width="3187.5" height="1052.8485774993896" viewBox="0 0 3187.5 1052.8485774993896">
			
			<g transform="scale(9.375) translate(10, 10)">
				<defs id="SvgjsDefs10913"/><g id="SvgjsG10914" featureKey="YvLwfh-0" transform="matrix(3.8461538461538463,0,0,3.8461538461538463,0,-3.823074927696815)" fill="#fff"><path xmlns="http://www.w3.org/2000/svg" d="M24,16.994h-1v-6.141c1.722-0.446,3-1.997,3-3.859c0-2.209-1.791-4-4-4c-1.862,0-3.412,1.278-3.859,3H15v-2  c0-0.551-0.449-1-1-1h-4c-0.551,0-1,0.449-1,1v2H6v-4c0-0.551-0.449-1-1-1H1c-0.551,0-1,0.449-1,1v10c0,0.551,0.449,1,1,1h4  c0.551,0,1-0.449,1-1v-4h3v2c0,0.551,0.449,1,1,1h4c0.551,0,1-0.449,1-1v-2h3.142c0.363,1.401,1.458,2.495,2.858,2.858v6.141h-1  c-0.551,0-1,0.449-1,1v2h-4.141c-0.446-1.722-1.997-3-3.859-3c-2.209,0-4,1.791-4,4c0,2.209,1.791,4,4,4  c1.862,0,3.412-1.278,3.858-3H19v2c0,0.551,0.449,1,1,1h4c0.551,0,1-0.449,1-1v-6C25,17.443,24.551,16.994,24,16.994z"/></g><g id="SvgjsG10915" featureKey="JZW510-0" transform="matrix(3.4989325775697337,0,0,3.4989325775697337,125.63680979339141,5.182371169363625)" fill="#fff"><path d="M14.98 6.5600000000000005 c0.06 0.04 0.12 0.14 0.24 0.38 c0.22 0.4 0.18 0.96 -0.22 1.26 c-4.16 3.04 -8.3 6.08 -12.4 9.16 c-0.12 0.44 -0.56 0.72 -0.9 0.68 l-0.32 0.24 c-0.7 0.52 -1.4 1.04 -2.1 1.58 c-0.36 0.26 -1.16 -1.36 -0.8 -1.64 l0 0.02 l1.06 -0.8 c0.6 -0.44 1.08 -0.82 1.68 -1.28 c0.14 -2.78 0.22 -5.48 0.22 -8.28 c0 -0.96 0.02 -1.18 0 -2.16 c-0.66 0.2 -1.24 0.38 -1.76 0.6 c-0.4 0.06 -0.82 -1.66 -0.44 -1.86 c0.78 -0.32 1.38 -0.56 2.16 -0.78 c0 -0.4 -0.02 -0.72 -0.04 -1.12 c0.06 -0.4 1.42 -0.46 1.44 -0.02 c0 0.48 0.02 0.24 0.02 0.74 c2.24 -0.58 4.54 -0.9 6.78 -1 l-0.1 0.04 c0.08 -0.02 0.16 -0.02 0.24 0 c0.76 -0.16 1.4 0.98 0.64 1.64 l-3.78 3.28 c2.66 -0.48 5.32 -0.78 7.98 -0.86 c0.06 0 0.22 0.06 0.4 0.18 z M3.58 9.9 l-0.06 0.06 c-0.22 0.16 -0.46 0.16 -0.64 0.1 c-0.02 1.64 -0.08 3.06 -0.16 4.98 c3.32 -2.5 5.22 -3.9 8.78 -6.5 c-2.68 0.26 -5.4 0.72 -7.92 1.36 z M7.18 4.460000000000001 c-1.44 0.2 -2.96 0.46 -4.34 0.82 c0.02 0.88 0.04 1.76 0.04 2.62 l0 0.18 l0.1 -0.02 l0.06 -0.02 l-0.12 0.12 c0.94 -0.84 1.9 -1.64 2.86 -2.48 z M19.32 7.34 c0.58 1.02 1.12 2.18 1.64 3.36 c0.48 0.26 0.7 0.94 0.22 1.44 c-0.12 0.26 -0.3 0.38 -0.5 0.4 c-1.28 1 -2.48 2 -3.72 3.08 c-0.14 0.46 -0.02 0.02 -0.2 0.74 c1.16 -1.02 2.24 -1.94 3.3 -2.76 l0 0.02 c0.36 -0.28 1.28 1.16 0.92 1.44 c-1.76 1.36 -3.46 2.86 -5.06 4.36 c-0.46 0.44 -1.08 -0.02 -1.16 -0.56 c-0.06 -0.16 -0.06 -0.3 0 -0.5 c0.2 -0.84 0.02 -0.2 0.24 -1 c-0.36 0.3 -0.7 0.66 -1.06 1 c-0.32 0.3 -1.3 -1.06 -0.98 -1.36 c0.96 -0.9 1.9 -1.78 2.88 -2.64 c0.66 -2.32 1.38 -4.7 2.16 -6.98 c0.24 -0.68 1.1 -0.52 1.32 0.02 l0 -0.06 z M19.62 11.22 l-0.84 -1.66 c-0.36 1.12 -0.52 1.6 -0.96 3.1 c0.58 -0.46 1.1 -0.9 1.8 -1.44 z M25.5 7.74 c0.2 -0.66 1.1 -0.48 1.32 0.04 l-0.02 -0.1 c0.68 1.24 1.32 2.6 1.9 3.96 c0.14 0.42 -1.14 1.08 -1.3 0.68 c-0.34 -0.82 -0.7 -1.66 -1.12 -2.42 c-0.84 2.52 -1.3 4.02 -2.04 6.82 c1.08 -0.96 2.22 -1.92 3.32 -2.78 c0.4 -0.26 0.9 0.06 1.06 0.3 c0.12 0.12 0.22 0.36 0.22 0.72 l0 1.4 c0 0.14 -0.02 0.16 -0.02 0.16 c0 0.02 0.02 0.06 0.02 0.16 c0.76 -0.88 1.6 -1.8 2.42 -2.64 l-0.02 0 c0.3 -0.32 1.3 1.02 1 1.32 c-1.22 1.28 -2.36 2.56 -3.5 3.9 l0 -0.02 c-0.34 0.4 -0.84 0.24 -1.06 -0.1 l0.12 0.2 c-0.18 -0.12 -0.3 -0.44 -0.32 -0.8 c-0.04 -0.94 -0.04 -1.3 -0.04 -2.32 c-1.46 1.18 -2.64 2.24 -4.04 3.54 c-0.42 0.44 -1.04 0 -1.14 -0.54 c-0.04 -0.14 -0.06 -0.34 0 -0.52 c0.94 -3.66 2 -7.36 3.24 -10.96 z M37.22 12.379999999999999 c-0.3 -0.74 -0.68 -1.54 -1.14 -2.42 c-0.84 2.54 -1.34 4.04 -2.06 6.86 c1.06 -0.94 2.24 -1.92 3.34 -2.78 l0 0.02 c0.36 -0.28 1.26 1.16 0.92 1.44 c-1.76 1.36 -3.62 2.98 -5.1 4.36 c-0.44 0.4 -1.04 -0.02 -1.16 -0.56 c-0.04 -0.16 -0.04 -0.28 0 -0.5 c0.96 -3.7 2.04 -7.4 3.28 -11.02 c0.22 -0.58 1.08 -0.46 1.28 -0.02 l0 -0.04 c0.7 1.22 1.34 2.58 1.94 4 c0.16 0.4 -1.12 1.06 -1.3 0.66 z M45.36 9.26 l1.64 3.82 c0.26 0.7 -0.04 1.24 -0.46 1.36 c-0.96 1.72 -2.02 3.42 -3.16 5.06 l0.02 0 c-0.36 0.5 -1 0.24 -1.24 -0.22 l-0.14 -0.26 c-0.98 -2.1 -1.76 -4.26 -2.24 -6.62 l0 -0.02 c-0.1 -0.26 -0.04 -0.56 0.08 -0.78 c1.08 -1.66 2.32 -3 3.6 -3.72 c0.2 -0.34 1.44 -0.16 1.36 0.24 c0.02 0.14 0.22 0.5 0.36 0.76 c0.08 0.16 0.16 0.3 0.18 0.38 z M41.24 12.36 c0.38 1.72 0.92 3.4 1.68 5.04 c0.96 -1.46 1.8 -2.78 2.54 -4.18 l-1.36 -3.18 l-0.24 -0.54 c-1.04 0.86 -1.94 1.86 -2.62 2.86 z M47.02 13.6 c0.96 -0.9 1.84 -1.72 2.84 -2.58 c0.08 -0.98 0.18 -1.98 0.28 -2.96 c0.06 -0.42 1.4 -0.3 1.4 0.12 l-0.16 1.52 c0.9 -0.78 1.76 -1.46 2.72 -2.2 l-0.04 0.08 c0.14 -0.22 0.32 -0.36 0.48 -0.38 l-0.04 0.02 c0.78 -0.24 1.5 0.86 0.7 1.58 c-0.4 3.4 -0.64 6.8 -0.72 10.14 c-0.04 0.44 -1.38 0.44 -1.38 -0.02 c0.04 -3 0.22 -5.98 0.56 -8.92 c-0.86 0.7 -1.64 1.36 -2.5 2.1 c-0.22 2.98 -0.38 5.86 -0.44 8.82 c0 0.44 -1.38 0.44 -1.38 0 c0.06 -2.86 0.08 -4.66 0.32 -7.5 c-0.58 0.52 -1.12 1.02 -1.66 1.56 c-0.34 0.3 -1.3 -1.08 -0.98 -1.38 z"/></g>
			</g>
		</svg>
	