
        <svg xmlns="http://www.w3.org/2000/svg" xmlns:xlink="http://www.w3.org/1999/xlink" version="1.1" width="3187.5" height="1052.8485774993896" viewBox="0 0 3187.5 1052.8485774993896">
			
			<g transform="scale(9.375) translate(10, 10)">
				<defs id="SvgjsDefs9391"/><g id="SvgjsG9392" featureKey="YvLwfh-0" transform="matrix(3.8461538461538463,0,0,3.8461538461538463,0,-3.823074927696815)" fill="#fff"><path xmlns="http://www.w3.org/2000/svg" d="M24,16.994h-1v-6.141c1.722-0.446,3-1.997,3-3.859c0-2.209-1.791-4-4-4c-1.862,0-3.412,1.278-3.859,3H15v-2  c0-0.551-0.449-1-1-1h-4c-0.551,0-1,0.449-1,1v2H6v-4c0-0.551-0.449-1-1-1H1c-0.551,0-1,0.449-1,1v10c0,0.551,0.449,1,1,1h4  c0.551,0,1-0.449,1-1v-4h3v2c0,0.551,0.449,1,1,1h4c0.551,0,1-0.449,1-1v-2h3.142c0.363,1.401,1.458,2.495,2.858,2.858v6.141h-1  c-0.551,0-1,0.449-1,1v2h-4.141c-0.446-1.722-1.997-3-3.859-3c-2.209,0-4,1.791-4,4c0,2.209,1.791,4,4,4  c1.862,0,3.412-1.278,3.858-3H19v2c0,0.551,0.449,1,1,1h4c0.551,0,1-0.449,1-1v-6C25,17.443,24.551,16.994,24,16.994z"/></g><g id="SvgjsG9393" featureKey="JZW510-0" transform="matrix(3.5133261171014443,0,0,3.5133261171014443,120.03903767437868,-5.192708103330737)" fill="#fff"><path d="M7.44 15.84 c0.06 0.4 0.1 0.68 0.1 0.96 c-0.02 0.28 -0.12 0.56 -0.3 0.96 c-0.4 0.8 -0.84 1.32 -1.38 1.66 c-0.56 0.34 -1.22 0.5 -2.08 0.52 c-0.5 0.02 -0.92 0.04 -1.3 0.04 s-0.8 0 -1.3 -0.02 c-0.5 0 -0.78 -0.28 -0.92 -0.62 c-0.16 -0.34 -0.18 -0.76 -0.18 -1.06 c0.02 -0.44 0.02 -0.82 0.04 -1.16 c0 -0.32 0 -0.64 0.02 -0.96 c0 -0.62 0.02 -1.22 0.02 -2.1 c0.02 -0.98 -0.04 -1.96 -0.1 -2.92 c0 -0.06 -0.02 -0.18 -0.04 -0.38 c-0.06 -0.38 -0.04 -0.82 0.12 -1.14 c0.08 -0.16 0.22 -0.24 0.44 -0.22 c0.82 -0.02 1.4 -0.04 1.92 -0.04 s0.98 0.06 1.62 0.16 c0.94 0.16 1.6 0.56 1.98 1.12 s0.48 1.26 0.26 1.98 c-0.22 0.64 -0.58 0.96 -1.16 1.18 c0.1 0.06 0.26 0.12 0.48 0.16 c0.22 0.06 0.38 0.12 0.48 0.18 c0.86 0.46 1.2 1 1.28 1.7 z M2.28 11.52 c-0.1 0 -0.16 0.04 -0.16 0.12 c-0.02 0.1 -0.02 0.24 -0.02 0.46 l0 0.8 c0 0.24 0.24 0.44 0.48 0.38 c0.06 -0.02 0.16 -0.02 0.3 -0.02 c0.38 0.02 0.52 0.04 0.84 -0.18 c0.14 -0.1 0.26 -0.18 0.32 -0.24 c0.14 -0.08 0.18 -0.34 0.18 -0.5 c0 -0.08 -0.04 -0.18 -0.1 -0.28 c-0.22 -0.48 -0.58 -0.56 -1.06 -0.56 l-0.04 0 c-0.3 -0.02 -0.6 0 -0.74 0.02 z M4.9 17.04 c0.06 -0.3 0.1 -0.46 -0.06 -0.72 c-0.14 -0.28 -0.4 -0.48 -0.74 -0.62 c-0.18 -0.06 -0.56 -0.08 -0.92 -0.08 c-0.18 0 -0.36 0 -0.52 0.02 s-0.28 0.02 -0.34 0.02 c-0.14 0.02 -0.22 0.06 -0.22 0.16 c-0.02 0.1 -0.02 0.3 -0.02 0.56 l0 0.48 c-0.02 0.18 -0.02 0.36 -0.02 0.5 c0 0.3 0.3 0.56 0.64 0.5 c0.06 0 0.14 0 0.22 -0.02 l0.2 0 c0.54 0.02 0.68 0.02 1.14 -0.22 c0.42 -0.26 0.58 -0.32 0.64 -0.58 z M14.920000000000002 18.2 c0.54 0.02 0.92 0.44 0.9 0.9 c-0.02 0.48 -0.44 0.9 -0.98 0.92 l-0.46 0 l-0.62 0 l-0.64 0 l-0.46 0 c-0.98 0.02 -1.96 0.04 -2.94 0.04 c-0.54 0.02 -0.82 -0.22 -0.84 -0.76 c-0.02 -0.06 -0.02 -0.1 -0.02 -0.16 l0 -0.18 c-0.06 -0.16 -0.08 -0.32 -0.06 -0.48 l0.06 -0.56 c0 -0.18 0 -0.36 0.02 -0.54 l0.06 -2.14 c0.02 -0.7 0.04 -1.42 0.06 -2.14 c0.04 -0.8 0.06 -1.6 0.06 -2.4 c0.02 -0.04 0.02 -0.08 0.02 -0.12 c-0.02 -0.02 -0.02 -0.06 -0.02 -0.1 c0 -0.1 -0.02 -0.22 -0.04 -0.32 s-0.02 -0.2 0.04 -0.26 c0.22 -0.22 0.44 -0.44 0.74 -0.5 c0.24 -0.06 0.48 -0.08 0.74 -0.1 c0.24 0 0.48 -0.02 0.72 -0.04 l0 0.04 l1.62 0.06 c1.06 0.02 2.88 -0.34 3.04 1.44 c0.02 0.3 -0.1 0.56 -0.32 0.74 c-0.24 0.18 -0.52 0.28 -0.82 0.22 c-0.82 -0.22 -1.64 -0.22 -2.46 -0.08 c-0.08 0.02 -0.16 0.02 -0.22 0 c-0.08 -0.02 -0.16 -0.02 -0.24 -0.02 c-0.42 0 -0.72 0.26 -0.74 0.66 c-0.02 0.16 -0.04 0.32 -0.02 0.46 c0 0.16 0 0.32 -0.02 0.46 c-0.02 0.22 0.08 0.36 0.26 0.44 c0.1 0.02 0.18 0.06 0.28 0.08 l0.26 0.06 c0.3 0.02 0.62 0.02 0.92 0.02 s0.62 0 0.92 0.02 c0.06 0 0.12 0 0.18 -0.02 c0.04 0 0.1 0 0.16 0.02 c1.2 0.1 1.04 1.24 0.66 1.7 s-0.94 0.4 -1.5 0.38 c-0.28 -0.02 -0.56 -0.02 -0.86 -0.04 c-0.12 -0.02 -0.24 -0.02 -0.36 -0.04 c-0.24 -0.02 -0.62 -0.04 -0.76 0.08 c-0.16 0.12 -0.2 0.62 -0.2 1.04 l0 0.66 c0.06 0.4 0.34 0.5 0.8 0.5 l0.7 0 c0.56 0 1.14 0.02 1.7 0.02 c0.26 0.02 0.5 0.02 0.68 0.04 z M26.380000000000003 18.86 c0.1 0.32 0 0.56 -0.28 0.74 c-0.24 0.18 -0.56 0.28 -0.86 0.14 c-0.32 -0.14 -0.56 -0.36 -0.7 -0.7 l-0.18 -0.24 c-0.06 -0.08 -0.14 -0.16 -0.2 -0.24 c-0.1 -0.18 -0.18 -0.34 -0.24 -0.5 c-0.22 -0.48 -0.66 -0.62 -1.12 -0.56 c-0.42 0.06 -0.82 -0.02 -1.22 -0.1 c-0.46 -0.08 -0.88 0 -1.28 0.14 c-0.18 0.06 -0.38 0.24 -0.48 0.4 l-0.36 0.68 c-0.12 0.22 -0.22 0.46 -0.3 0.68 c-0.18 0.5 -0.56 0.66 -0.98 0.74 c-0.26 0.06 -0.56 -0.14 -0.74 -0.4 c-0.18 -0.24 -0.28 -0.58 -0.18 -0.84 l0.66 -1.68 c0.4 -1.1 0.8 -2.02 1.08 -2.68 s0.56 -1.38 0.8 -2.04 c0.1 -0.34 0.22 -0.68 0.36 -1.02 c0.1 -0.24 0.18 -0.48 0.28 -0.74 c0.16 -0.48 0.34 -0.86 0.6 -1.06 s0.6 -0.3 0.94 -0.3 c0.32 0 0.68 0.12 0.9 0.44 c0.1 0.16 0.2 0.32 0.28 0.5 c0.32 0.7 0.6 1.38 0.9 2.08 c0.08 0.22 0.14 0.42 0.2 0.64 l0.06 0.18 c0.02 0.06 0.04 0.1 0.06 0.16 c0.18 0.34 0.34 0.7 0.46 1.04 c0.24 0.72 0.44 1.34 0.68 1.82 c0.24 0.5 0.44 1.1 0.62 1.74 z M22.320000000000004 15.36 c0.46 0.06 0.58 -0.06 0.64 -0.52 l-0.06 -0.28 c-0.02 -0.08 -0.04 -0.16 -0.08 -0.24 c-0.14 -0.38 -0.26 -0.68 -0.42 -1.02 c-0.1 -0.22 -0.16 -0.46 -0.46 -0.46 c-0.3 0.02 -0.38 0.24 -0.46 0.46 c-0.22 0.48 -0.4 0.96 -0.58 1.46 c-0.14 0.38 0 0.56 0.42 0.56 c0.34 0 0.68 0.02 1 0.04 z M35.900000000000006 16.68 c0.24 0.1 0.4 0.32 0.48 0.56 c0.06 0.24 0.02 0.52 -0.12 0.7 c-0.04 0.06 -0.08 0.12 -0.1 0.18 l-0.12 0.2 c-0.04 0.06 -0.08 0.14 -0.1 0.2 c-0.04 0.06 -0.1 0.12 -0.16 0.16 c-0.7 0.46 -1.38 0.98 -2.24 1.2 c-0.14 0.04 -0.28 0.06 -0.42 0.04 c-0.14 0 -0.3 0 -0.44 0.02 c-1.1 0.06 -2.06 -0.2 -2.92 -0.82 c-0.58 -0.42 -1.04 -0.96 -1.34 -1.62 c-0.06 -0.14 -0.14 -0.3 -0.2 -0.46 c-0.08 -0.14 -0.16 -0.3 -0.22 -0.46 c-0.3 -0.94 -0.34 -1.88 -0.32 -2.86 c0.02 -0.54 0.16 -1.06 0.38 -1.52 c0.46 -1.04 1.28 -1.84 2.42 -2.3 c0.22 -0.08 0.42 -0.18 0.64 -0.28 c0.4 -0.2 0.82 -0.28 1.24 -0.24 l0.62 0.06 c0.06 0 0.12 0.02 0.18 0.04 c0.04 0.02 0.1 0.04 0.16 0.04 c0.7 0 1.24 0.34 1.74 0.74 c0.3 0.22 0.56 0.44 0.8 0.68 c0.24 0.22 0.36 0.44 0.36 0.64 c0 0.4 -0.22 0.86 -0.68 1.02 c-0.24 0.1 -0.48 0.1 -0.72 0 c-0.06 -0.02 -0.1 -0.04 -0.12 -0.06 c-0.04 -0.02 -0.08 -0.02 -0.1 -0.04 c-0.06 -0.06 -0.14 -0.14 -0.22 -0.2 c-0.1 -0.06 -0.18 -0.14 -0.26 -0.2 c-0.3 -0.24 -0.6 -0.44 -1.06 -0.44 c-0.02 0 -0.06 0 -0.1 -0.02 s-0.08 -0.02 -0.1 -0.02 c-0.14 -0.02 -0.26 -0.02 -0.38 -0.04 c-0.24 -0.02 -0.5 0.04 -0.74 0.14 l-0.4 0.16 c-0.7 0.28 -1.18 0.72 -1.46 1.34 c-0.14 0.3 -0.22 0.58 -0.22 0.9 c-0.02 0.58 0 1.14 0.18 1.68 c0.02 0.1 0.06 0.18 0.12 0.26 c0.06 0.1 0.1 0.18 0.14 0.28 c0.34 0.74 1.22 1.5 2.56 1.44 c0.1 -0.02 0.18 -0.02 0.28 -0.02 c0.08 0.02 0.16 0 0.26 -0.02 c0.54 -0.14 0.9 -0.42 1.36 -0.72 c0.06 -0.06 0.1 -0.12 0.16 -0.2 s0.16 -0.26 0.48 -0.26 c0.38 -0.02 0.4 0.02 0.7 0.12 z M46.86 14.08 c0.24 1.62 -0.04 2.94 -0.64 3.94 s-1.54 1.66 -2.58 1.96 c-0.82 0.24 -2.04 0.22 -3.14 -0.16 s-2.04 -1.14 -2.36 -2.34 c-0.16 -0.62 -0.22 -0.94 -0.28 -1.26 l-0.06 -0.52 c-0.02 -0.18 -0.06 -0.44 -0.1 -0.74 c-0.14 -0.94 0.06 -2.08 0.38 -2.9 c0.02 -0.04 0.08 -0.14 0.2 -0.3 c0.22 -0.3 0.52 -0.68 0.78 -0.96 c0.12 -0.14 0.2 -0.2 0.24 -0.22 l0.7 -0.6 c0.18 -0.16 0.42 -0.3 0.72 -0.4 c0.26 -0.26 0.92 -0.38 1.6 -0.38 s1.36 0.1 1.7 0.34 c0.14 0.1 0.24 0.16 0.34 0.22 c0.18 0.12 0.34 0.24 0.52 0.38 c0.08 0.06 0.18 0.16 0.3 0.26 c0.54 0.46 0.94 0.94 1.22 1.52 s0.4 1.28 0.46 2.16 z M44.940000000000005 14.64 c0 -1.02 -0.28 -1.74 -0.74 -2.22 c-0.48 -0.48 -1.1 -0.68 -1.8 -0.68 c-0.14 0 -0.68 0.06 -0.82 0.12 c-0.5 0.14 -0.94 0.54 -1.24 1.02 c-0.32 0.5 -0.5 1.1 -0.5 1.6 c0.06 1.1 0.26 1.98 1.16 2.68 c0.26 0.22 0.52 0.5 1.4 0.5 c0.62 0 1.24 -0.24 1.72 -0.72 s0.82 -1.24 0.82 -2.3 z M51.120000000000005 16.12 c-0.08 -0.1 -0.4 0 -0.42 0.14 l-0.04 0.28 l-0.06 0.3 c0.02 0.88 0 1.54 -0.06 2.36 c-0.06 0.72 -0.18 0.96 -0.98 0.96 c-0.9 0.02 -1.22 -0.36 -1.3 -0.92 c-0.06 -0.28 -0.06 -0.6 -0.02 -0.94 s0.06 -0.66 0.06 -0.98 c0 -0.46 0 -0.88 0.02 -1.24 l0 -1.02 c0 -0.66 0 -1.3 0.06 -2.24 c0.02 -0.46 0 -0.86 -0.02 -1.28 c-0.02 -0.22 -0.1 -0.84 -0.04 -1.06 c0.06 -0.38 0.04 -0.78 0.52 -0.94 c0.54 -0.18 0.8 -0.26 1.34 0.08 c0.08 0.06 0.14 0.12 0.2 0.18 c0.18 0.26 0.4 0.56 0.64 0.88 c0.22 0.34 0.44 0.68 0.62 1.02 c0.16 0.42 0.4 0.82 0.7 1.16 c0.3 0.36 0.58 0.74 0.84 1.12 c0.18 0.26 0.4 0.44 0.66 0.48 c0.24 0.04 0.44 -0.02 0.6 -0.12 c0.14 -0.08 0.12 -0.26 0.12 -0.44 c-0.02 -0.16 -0.04 -0.34 -0.04 -0.58 c0 -0.1 0.02 -0.24 0.04 -0.4 c0.02 -0.5 0.02 -1 0 -1.5 s0 -1.02 0.08 -1.58 c0.06 -0.54 0.56 -0.74 1.18 -0.66 c0.7 0.08 1.08 0.4 1.08 1.04 c0.02 0.72 0.02 1.44 0 2.16 s-0.02 1.44 -0.04 2.18 l0 0.58 l0 1.1 c-0.02 0.82 -0.04 1.76 -0.04 2.26 c-0.02 1.1 -0.38 1.54 -1.28 1.54 l-0.46 0 c-0.3 0 -0.58 -0.1 -0.84 -0.3 c-0.14 -0.1 -0.26 -0.24 -0.38 -0.42 c-0.24 -0.32 -0.52 -0.68 -0.86 -1.08 c-0.34 -0.38 -0.64 -0.74 -0.86 -1.06 c-0.16 -0.22 -0.32 -0.42 -0.48 -0.56 c-0.18 -0.14 -0.36 -0.3 -0.54 -0.5 z"/></g>
			</g>
		</svg>
	