
        <svg xmlns="http://www.w3.org/2000/svg" xmlns:xlink="http://www.w3.org/1999/xlink" version="1.1" width="3187.5" height="1160.3227667550277" viewBox="0 0 3187.5 1160.3227667550277">
			
			<g transform="scale(9.375) translate(10, 10)">
				<defs id="SvgjsDefs4292"/><g id="SvgjsG4293" featureKey="YvLwfh-0" transform="matrix(2.4706609949334033,0,0,2.4706609949334033,-7.4119829848002095,-7.4119829848002095)" fill="#fff"><path xmlns="http://www.w3.org/2000/svg" d="M24,13.5c0,1.9-1.6,3.5-3.5,3.5S17,15.4,17,13.5s1.6-3.5,3.5-3.5S24,11.5,24,13.5z M7,29.5c-1.9,0-3.5,1.6-3.5,3.5  s1.6,3.5,3.5,3.5s3.5-1.6,3.5-3.5S9,29.5,7,29.5z M30.5,30c-1.9,0-3.5,1.6-3.5,3.5s1.6,3.5,3.5,3.5s3.5-1.6,3.5-3.5S32.4,30,30.5,30  z M25,34c-0.3,0-0.7,0-1,0c-5.5,0-10-4.5-10-10c0-2.6,1-4.9,2.6-6.7c-0.7-0.8-1.3-1.7-1.5-2.8C12.6,16.9,11,20.3,11,24  c0,7.2,5.8,13,13,13c0.7,0,1.4-0.1,2.1-0.2C25.5,36,25.1,35,25,34z M43.1,4.9c-0.6-0.6-1.5-0.6-2.1,0l-3.2,3.2C34.1,4.9,29.3,3,24,3  C12.4,3,3,12.4,3,24c0,1.4,0.1,2.9,0.4,4.2c0.8-0.6,1.8-1,2.9-1.2C6.1,26.1,6,25,6,24c0-9.9,8.1-18,18-18c4.4,0,8.5,1.6,11.6,4.3  l-3.5,3.5c-1.9-1.5-4.1-2.5-6.7-2.7c0.4,0.7,0.6,1.5,0.6,2.4c0,0.2,0,0.5-0.1,0.7c1.5,0.3,2.8,0.9,4,1.8l-5.2,5.2  C24.5,21,24.3,21,24,21c-1.7,0-3,1.3-3,3s1.3,3,3,3s3-1.3,3-3c0-0.3,0-0.5-0.1-0.8L43.1,7.1C43.6,6.5,43.6,5.5,43.1,4.9z M24,42  c-4.8,0-9.2-1.9-12.5-5c-0.7,0.8-1.6,1.4-2.5,1.7c3.8,3.9,9.1,6.3,15,6.3c5.8,0,11-2.4,14.8-6.2l-2.1-2.1C33.5,40,29,42,24,42z"/></g><g id="SvgjsG4294" featureKey="JZW510-0" transform="matrix(4.329004257515841,0,0,4.329004257515841,116.53679576829529,-4.2813793317558755)" fill="#fff"><path d="M4.12 6 c2.28 0 3.26 1.06 3.26 3.22 l0 0.5 c0 1.44 -0.44 2.34 -1.42 2.8 l0 0.04 c1.18 0.46 1.64 1.5 1.64 2.98 l0 1.14 c0 2.16 -1.14 3.32 -3.34 3.32 l-3.46 0 l0 -14 l3.32 0 z M3.98 13.7 l-0.98 0 l0 4.3 l1.26 0 c0.74 0 1.14 -0.34 1.14 -1.38 l0 -1.22 c0 -1.3 -0.42 -1.7 -1.42 -1.7 z M4.06 8 l-1.06 0 l0 3.7 l0.86 0 c0.82 0 1.32 -0.36 1.32 -1.48 l0 -0.78 c0 -1 -0.34 -1.44 -1.12 -1.44 z M11.120000000000001 8 l0 3.9 l3.02 0 l0 2 l-3.02 0 l0 4.1 l3.8 0 l0 2 l-6 0 l0 -14 l6 0 l0 2 l-3.8 0 z M21.16 6 l2.24 14 l-2.22 0 l-0.38 -2.54 l-2.7 0 l-0.38 2.54 l-2.02 0 l2.24 -14 l3.22 0 z M19.42 8.48 l-1.04 7.08 l2.12 0 l-1.04 -7.08 l-0.04 0 z M28.700000000000003 14.780000000000001 l2.08 0 l0 1.86 c0 2.24 -1.12 3.52 -3.28 3.52 s-3.28 -1.28 -3.28 -3.52 l0 -7.28 c0 -2.24 1.12 -3.52 3.28 -3.52 s3.28 1.28 3.28 3.52 l0 1.36 l-2.08 0 l0 -1.5 c0 -1 -0.44 -1.38 -1.14 -1.38 s-1.14 0.38 -1.14 1.38 l0 7.56 c0 1 0.44 1.36 1.14 1.36 s1.14 -0.36 1.14 -1.36 l0 -2 z M34.14 9.22 l0 7.56 c0 1 0.44 1.38 1.14 1.38 s1.14 -0.38 1.14 -1.38 l0 -7.56 c0 -1 -0.44 -1.38 -1.14 -1.38 s-1.14 0.38 -1.14 1.38 z M31.94 16.64 l0 -7.28 c0 -2.24 1.18 -3.52 3.34 -3.52 s3.34 1.28 3.34 3.52 l0 7.28 c0 2.24 -1.18 3.52 -3.34 3.52 s-3.34 -1.28 -3.34 -3.52 z M44.74 20 l-2.7 -10.14 l-0.04 0 l0 10.14 l-1.98 0 l0 -14 l2.76 0 l2.22 8.38 l0.04 0 l0 -8.38 l1.96 0 l0 14 l-2.26 0 z"/></g>
			</g>
		</svg>
	