
        <svg xmlns="http://www.w3.org/2000/svg" xmlns:xlink="http://www.w3.org/1999/xlink" version="1.1" width="3159.985607557537" height="784.2015284177785" viewBox="0 0 3159.985607557537 784.2015284177785">
			
			<g transform="scale(7.999280377876847) translate(10, 10)">
				<defs id="SvgjsDefs1038"/><g id="SvgjsG1039" featureKey="nRdZyp-0" transform="matrix(1.0975247701430075,0,0,1.0975247701430075,-3.527758339271265,-0.5487623850715038)" fill="#fff"><g xmlns="http://www.w3.org/2000/svg"><path d="M63,64.1h-3.5c-0.5,0-0.9-0.4-0.9-0.9V38.6C58.6,26.1,48.5,16,36,16l0,0c-12.5,0-22.6,10.1-22.6,22.6v24.6   c0,0.5-0.4,0.9-0.9,0.9H9c-0.5,0-0.9,0.4-0.9,0.9v5.7c0,0.5,0.4,0.9,0.9,0.9h54c0.5,0,0.9-0.4,0.9-0.9V65   C63.9,64.5,63.5,64.1,63,64.1z M27.5,59.1c-4.3,0-7.7-5.5-7.7-12.2s3.4-12.2,7.7-12.2c4.3,0,7.7,5.5,7.7,12.2S31.7,59.1,27.5,59.1z   "/><g><path d="M36.5,0.5c-1,0-1.9,0.8-1.9,1.9v8.4c0,1,0.8,1.9,1.9,1.9s1.9-0.8,1.9-1.9V2.4C38.3,1.3,37.5,0.5,36.5,0.5z    "/><path d="M55.5,4c-0.9-0.5-2-0.1-2.5,0.8l-3.8,7.5c-0.5,0.9-0.1,2,0.8,2.5c0.3,0.1,0.6,0.2,0.8,0.2    c0.7,0,1.3-0.4,1.7-1l3.8-7.5C56.8,5.6,56.4,4.5,55.5,4z"/><path d="M68.1,14.5c-0.8-0.6-2-0.5-2.6,0.3l-5.2,6.6c-0.6,0.8-0.5,2,0.3,2.6c0.3,0.3,0.7,0.4,1.2,0.4    c0.5,0,1.1-0.2,1.4-0.7l5.2-6.6C69,16.3,68.9,15.2,68.1,14.5z"/><path d="M19,4.9c-0.5-0.9-1.6-1.3-2.5-0.8c-0.9,0.5-1.3,1.6-0.8,2.5l3.8,7.5c0.3,0.6,1,1,1.7,1    c0.3,0,0.6-0.1,0.8-0.2c0.9-0.5,1.3-1.6,0.8-2.5L19,4.9z"/><path d="M6.5,14.8c-0.6-0.8-1.8-0.9-2.6-0.3c-0.8,0.6-0.9,1.8-0.3,2.6l5.2,6.6c0.4,0.5,0.9,0.7,1.4,0.7    c0.4,0,0.8-0.1,1.2-0.4c0.8-0.6,0.9-1.8,0.3-2.6L6.5,14.8z"/></g></g></g><g id="SvgjsG1040" featureKey="Q4qmbg-0" transform="matrix(4.385426191057114,0,0,4.385426191057114,92.5268653687671,-17.03213351950419)" fill="#fff"><path d="M6.22 9.98 c2.9 0 4.82 2.18 4.82 5.1 s-2.12 5.08 -5.02 5.08 c-0.64 0 -1.72 -0.36 -2.04 -0.82 l0 0.66 l-2.96 0 l0 -14.52 l2.96 0 l0 5.34 c0.34 -0.5 1.62 -0.84 2.24 -0.84 z M5.82 17.92 c1.24 0 2.26 -1.28 2.26 -2.84 c0 -1.58 -1.02 -2.86 -2.26 -2.86 c-1.36 0 -2.24 1.54 -2.24 2.86 s0.9 2.84 2.24 2.84 z M22.383895833333334 15.08 l0 0.66 l-7.04 0 c0 1.16 1.18 1.98 2.16 1.98 c0.96 0 1.84 -0.38 2.3 -1.22 l1.98 1.82 c-0.8 1.08 -2.02 1.84 -4.28 1.84 c-3.24 0 -5.22 -2.16 -5.22 -5.08 s1.92 -5.1 5.04 -5.1 s5.06 2.14 5.06 5.1 z M15.403895833333332 13.86 l3.88 0 c-0.16 -0.94 -0.84 -1.44 -1.96 -1.44 c-1.08 0 -1.74 0.58 -1.92 1.44 z M25.887791666666665 13.04 l-2.2 -1.26 c1.1 -1.24 2.58 -1.82 4.12 -1.82 c2.96 0 4.16 1.62 4.16 3.14 l0 6.9 l-2.96 0 l0 -0.7 c-0.46 0.48 -1.28 0.84 -2.2 0.84 c-2.7 0 -3.74 -1.2 -3.74 -3.04 c0 -2.08 1.68 -3.48 4.4 -3.48 l1.54 0 c0 -0.74 -0.56 -1.22 -1.4 -1.22 c-0.86 0 -1.28 0.16 -1.72 0.64 z M29.007791666666662 16.740000000000002 l0 -0.88 l-1.74 0 c-0.78 0 -1.36 0.54 -1.24 1.3 c0.08 0.54 0.56 0.76 1.24 0.76 c1.3 0 1.74 -0.74 1.74 -1.18 z M40.69168749999999 16.46 l2.08 1.88 c-1.12 1.24 -2.58 1.82 -4.14 1.82 c-2.88 0 -5.2 -2.16 -5.2 -5.08 s2.32 -5.1 5.2 -5.1 c1.56 0 3.02 0.58 4.14 1.82 l-2.08 1.88 c-0.44 -1.02 -1.4 -1.26 -2.06 -1.26 c-1.22 0 -2.24 1.08 -2.24 2.66 c0 1.56 1.02 2.64 2.24 2.64 c0.66 0 1.64 -0.18 2.06 -1.26 z M48.75558333333332 12.42 c-1.22 0 -2.24 1.08 -2.24 2.66 c0 1.56 1.02 2.64 2.24 2.64 c1.24 0 2.26 -1.08 2.26 -2.64 c0 -1.58 -1.02 -2.66 -2.26 -2.66 z M48.75558333333332 9.98 c2.9 0 5.22 2.18 5.22 5.1 s-2.32 5.08 -5.22 5.08 c-2.88 0 -5.2 -2.16 -5.2 -5.08 s2.32 -5.1 5.2 -5.1 z M64.41947916666666 14.36 l0 5.64 l-2.96 0 l0 -5.64 c0 -1.5 -0.4 -2.16 -1.56 -2.16 c-1.2 0 -1.9 0.66 -1.9 2.16 l0 5.64 l-2.96 0 l0 -9.88 l2.96 0 l0 0.94 c0.76 -0.74 1.8 -1.08 2.66 -1.08 c2.78 0 3.76 1.34 3.76 4.38 z"/></g>
			</g>
		</svg>
	